<?xml version="1.0" encoding="UTF-8"?>
<svg width="1024" height="1024" viewBox="0 0 1024 1024" xmlns="http://www.w3.org/2000/svg">
  <defs>
    <linearGradient id="bg-grad" x1="0%" y1="0%" x2="100%" y2="100%">
      <stop offset="0%" stop-color="#0E252B" />
      <stop offset="100%" stop-color="#0E252B" />
    </linearGradient>
    <linearGradient id="leaf-grad" x1="0%" y1="0%" x2="100%" y2="100%">
      <stop offset="0%" stop-color="#6ee7b7" />
      <stop offset="100%" stop-color="#10b981" />
    </linearGradient>
  </defs>
  <!-- Icon artwork inset ~10% for macOS padding (centered in 1024x1024 canvas) -->
  <g transform="translate(100,100) scale(1.609375)">
    <!-- Apple-style squircle (superellipse n=5) background -->
    <path d="M512,256 L511.98,306.7 511.94,322.89 511.86,334.66 511.75,344.24 511.61,352.46 511.44,359.74 511.24,366.31 511,372.32 510.73,377.89 510.44,383.09 510.11,387.97 509.75,392.58 509.36,396.95 508.93,401.11 508.47,405.09 507.99,408.89 507.47,412.54 506.91,416.04 506.33,419.42 505.71,422.67 505.06,425.81 504.37,428.85 503.66,431.79 502.91,434.63 502.12,437.39 501.3,440.07 500.45,442.66 499.56,445.18 498.64,447.63 497.69,450.01 496.69,452.33 495.67,454.57 494.6,456.76 493.5,458.89 492.37,460.96 491.19,462.98 489.98,464.94 488.73,466.85 487.44,468.71 486.11,470.52 484.75,472.28 483.34,473.99 481.89,475.66 480.4,477.28 478.86,478.86 477.28,480.4 475.66,481.89 473.99,483.34 472.28,484.75 470.52,486.11 468.71,487.44 466.85,488.73 464.94,489.98 462.98,491.19 460.96,492.37 458.89,493.5 456.76,494.6 454.57,495.67 452.33,496.69 450.01,497.69 447.63,498.64 445.18,499.56 442.66,500.45 440.07,501.3 437.39,502.12 434.63,502.91 431.79,503.66 428.85,504.37 425.81,505.06 422.67,505.71 419.42,506.33 416.04,506.91 412.54,507.47 408.89,507.99 405.09,508.47 401.11,508.93 396.95,509.36 392.58,509.75 387.97,510.11 383.09,510.44 377.89,510.73 372.32,511 366.31,511.24 359.74,511.44 352.46,511.61 344.24,511.75 334.66,511.86 322.89,511.94 306.7,511.98 256,512 205.3,511.98 189.11,511.94 177.34,511.86 167.76,511.75 159.54,511.61 152.26,511.44 145.69,511.24 139.68,511 134.11,510.73 128.91,510.44 124.03,510.11 119.42,509.75 115.05,509.36 110.89,508.93 106.91,508.47 103.11,507.99 99.46,507.47 95.96,506.91 92.58,506.33 89.33,505.71 86.19,505.06 83.15,504.37 80.21,503.66 77.37,502.91 74.61,502.12 71.93,501.3 69.34,500.45 66.82,499.56 64.37,498.64 61.99,497.69 59.67,496.69 57.43,495.67 55.24,494.6 53.11,493.5 51.04,492.37 49.02,491.19 47.06,489.98 45.15,488.73 43.29,487.44 41.48,486.11 39.72,484.75 38.01,483.34 36.34,481.89 34.72,480.4 33.14,478.86 31.6,477.28 30.11,475.66 28.66,473.99 27.25,472.28 25.89,470.52 24.56,468.71 23.27,466.85 22.02,464.94 20.81,462.98 19.63,460.96 18.5,458.89 17.4,456.76 16.33,454.57 15.31,452.33 14.31,450.01 13.36,447.63 12.44,445.18 11.55,442.66 10.7,440.07 9.88,437.39 9.09,434.63 8.34,431.79 7.63,428.85 6.94,425.81 6.29,422.67 5.67,419.42 5.09,416.04 4.53,412.54 4.01,408.89 3.53,405.09 3.07,401.11 2.64,396.95 2.25,392.58 1.89,387.97 1.56,383.09 1.27,377.89 1,372.32 0.76,366.31 0.56,359.74 0.39,352.46 0.25,344.24 0.14,334.66 0.06,322.89 0.02,306.7 0,256 0.02,205.3 0.06,189.11 0.14,177.34 0.25,167.76 0.39,159.54 0.56,152.26 0.76,145.69 1,139.68 1.27,134.11 1.56,128.91 1.89,124.03 2.25,119.42 2.64,115.05 3.07,110.89 3.53,106.91 4.01,103.11 4.53,99.46 5.09,95.96 5.67,92.58 6.29,89.33 6.94,86.19 7.63,83.15 8.34,80.21 9.09,77.37 9.88,74.61 10.7,71.93 11.55,69.34 12.44,66.82 13.36,64.37 14.31,61.99 15.31,59.67 16.33,57.43 17.4,55.24 18.5,53.11 19.63,51.04 20.81,49.02 22.02,47.06 23.27,45.15 24.56,43.29 25.89,41.48 27.25,39.72 28.66,38.01 30.11,36.34 31.6,34.72 33.14,33.14 34.72,31.6 36.34,30.11 38.01,28.66 39.72,27.25 41.48,25.89 43.29,24.56 45.15,23.27 47.06,22.02 49.02,20.81 51.04,19.63 53.11,18.5 55.24,17.4 57.43,16.33 59.67,15.31 61.99,14.31 64.37,13.36 66.82,12.44 69.34,11.55 71.93,10.7 74.61,9.88 77.37,9.09 80.21,8.34 83.15,7.63 86.19,6.94 89.33,6.29 92.58,5.67 95.96,5.09 99.46,4.53 103.11,4.01 106.91,3.53 110.89,3.07 115.05,2.64 119.42,2.25 124.03,1.89 128.91,1.56 134.11,1.27 139.68,1 145.69,0.76 152.26,0.56 159.54,0.39 167.76,0.25 177.34,0.14 189.11,0.06 205.3,0.02 256,0 306.7,0.02 322.89,0.06 334.66,0.14 344.24,0.25 352.46,0.39 359.74,0.56 366.31,0.76 372.32,1 377.89,1.27 383.09,1.56 387.97,1.89 392.58,2.25 396.95,2.64 401.11,3.07 405.09,3.53 408.89,4.01 412.54,4.53 416.04,5.09 419.42,5.67 422.67,6.29 425.81,6.94 428.85,7.63 431.79,8.34 434.63,9.09 437.39,9.88 440.07,10.7 442.66,11.55 445.18,12.44 447.63,13.36 450.01,14.31 452.33,15.31 454.57,16.33 456.76,17.4 458.89,18.5 460.96,19.63 462.98,20.81 464.94,22.02 466.85,23.27 468.71,24.56 470.52,25.89 472.28,27.25 473.99,28.66 475.66,30.11 477.28,31.6 478.86,33.14 480.4,34.72 481.89,36.34 483.34,38.01 484.75,39.72 486.11,41.48 487.44,43.29 488.73,45.15 489.98,47.06 491.19,49.02 492.37,51.04 493.5,53.11 494.6,55.24 495.67,57.43 496.69,59.67 497.69,61.99 498.64,64.37 499.56,66.82 500.45,69.34 501.3,71.93 502.12,74.61 502.91,77.37 503.66,80.21 504.37,83.15 505.06,86.19 505.71,89.33 506.33,92.58 506.91,95.96 507.47,99.46 507.99,103.11 508.47,106.91 508.93,110.89 509.36,115.05 509.75,119.42 510.11,124.03 510.44,128.91 510.73,134.11 511,139.68 511.24,145.69 511.44,152.26 511.61,159.54 511.75,167.76 511.86,177.34 511.94,189.11 511.98,205.3Z" fill="url(#bg-grad)" />
    <g transform="translate(32,16) scale(0.94)">
      <path d="M125.27,324.319l-9.951,-3.525c22.539,-138.787 125.223,-235.929 295.275,-285.394c0.721,61.006 -52.027,136.73 -106.95,188.906c-52.351,49.38 -93.049,71.676 -158.694,106.984l-13.04,-4.619c36.423,-66.85 123.89,-158.435 192.078,-226.752c-66.653,56.107 -147.169,127.869 -198.717,224.4Z" fill="url(#leaf-grad)" />
      <path d="M111.249,327.769c-4.812,2.682 -6.885,6.187 -6.394,10.462c9.946,7.945 20.032,12.329 30.225,13.95c3.791,-3.053 6.098,-7.23 5.812,-13.369c-11.128,-2.138 -20.884,-4.871 -29.644,-11.044Z" fill="url(#leaf-grad)" />
      <path d="M69.399,444.6l8.137,-69.75l23.831,-27.319l28.481,10.463l-6.103,38.362l-54.347,48.244Zm0,0l26.738,-50.569l-0.705,-0.705c0.416,0.081 0.846,0.124 1.286,0.124c3.529,0 6.394,-2.735 6.394,-6.103c0,-3.368 -2.865,-6.103 -6.394,-6.103c-3.529,0 -6.394,2.735 -6.394,6.103c0,1.07 0.289,2.075 0.796,2.95l-21.721,54.303Z" fill="url(#leaf-grad)" />
    </g>
  </g>
</svg>
